<svg width="119" height="35" viewBox="0 0 119 35" fill="none" xmlns="http://www.w3.org/2000/svg">
<path d="M2.52757 27.5939V24.4998H8.54144V27.5939H2.52757ZM3.00694 0.880124H7.84418L10.5896 34H7.14692L5.62166 7.19905L5.27303 1.79528H5.53451L5.18588 7.19905L3.57346 34H0.305051L3.00694 0.880124ZM18.7399 8.46283V12.4285C18.5075 12.3704 18.2751 12.3268 18.0426 12.2978C17.8102 12.2687 17.6214 12.2542 17.4761 12.2542C17.0403 12.2542 16.6481 12.2832 16.2995 12.3413C15.9799 12.3994 15.6749 12.4866 15.3843 12.6028V10.7725C15.7911 9.95904 16.2559 9.37799 16.7789 9.02936C17.3018 8.65167 17.9555 8.46283 18.7399 8.46283ZM11.9416 34V8.68073H14.8614L15.3843 10.7725V34H11.9416ZM19.7071 11.6005V8.68073H27.3334V11.6005H19.7071ZM21.2324 27.071V8.68073H21.4067L22.3654 4.6279H24.6751V26.1558C24.6751 28.1604 24.7913 29.4823 25.0238 30.1215C25.2562 30.7606 25.6048 31.0802 26.0696 31.0802C26.3021 31.0802 26.52 31.0657 26.7233 31.0366C26.9557 31.0076 27.1591 30.9785 27.3334 30.9495V34C27.1301 34.0581 26.8686 34.1017 26.549 34.1307C26.2585 34.1888 26.0115 34.2179 25.8082 34.2179C24.9075 34.2179 24.1086 34.0436 23.4113 33.6949C22.7431 33.3463 22.2057 32.6636 21.7989 31.6467C21.4212 30.6009 21.2324 29.0756 21.2324 27.071ZM28.6667 34V8.68073H32.1094V34H28.6667ZM28.6231 6.37105V2.3618H32.153V6.37105H28.6231ZM39.4255 28.5527C39.4255 27.4487 39.2367 26.4463 38.859 25.5457C38.4813 24.6451 38.0019 23.788 37.4209 22.9746C36.8689 22.1611 36.3024 21.3331 35.7213 20.4906C35.1693 19.6481 34.7045 18.7038 34.3268 17.658C33.9491 16.6121 33.7603 15.4064 33.7603 14.0409C33.7603 12.4721 34.1525 11.1502 34.9369 10.0752C35.7504 9.0003 36.8253 8.46283 38.1617 8.46283C39.0333 8.46283 39.8032 8.69525 40.4714 9.16009C41.1396 9.59588 41.648 10.3948 41.9967 11.5569C42.3743 12.719 42.5632 14.375 42.5632 16.5249V17.135H39.5998V16.7428C39.5998 14.7672 39.4691 13.3727 39.2076 12.5592C38.9752 11.7167 38.6556 11.2955 38.2489 11.2955C37.9003 11.2955 37.5952 11.5569 37.3337 12.0799C37.1013 12.5738 36.9851 13.2274 36.9851 14.0409C36.9851 15.174 37.1739 16.1763 37.5516 17.0479C37.9584 17.9194 38.4377 18.7474 38.9897 19.5318C39.5417 20.3163 40.0937 21.1297 40.6457 21.9723C41.2268 22.8148 41.7061 23.7735 42.0838 24.8485C42.4906 25.8943 42.6939 27.1291 42.6939 28.5527C42.6939 29.5404 42.5341 30.4701 42.2146 31.3417C41.924 32.2133 41.4592 32.9105 40.82 33.4335C40.1809 33.9564 39.3529 34.2179 38.336 34.2179C37.4645 34.2179 36.6946 34 36.0264 33.5642C35.3582 33.0994 34.8352 32.2859 34.4575 31.1238C34.0799 29.9326 33.891 28.2767 33.891 26.1558V25.4586H36.8544V25.9379C36.8544 27.9135 36.9706 29.3225 37.203 30.1651C37.4645 31.0076 37.8131 31.4289 38.2489 31.4289C38.6847 31.4289 38.9897 31.1238 39.164 30.5137C39.3384 29.9036 39.4255 29.2499 39.4255 28.5527ZM43.3265 11.6005V8.68073H50.9528V11.6005H43.3265ZM44.8518 27.071V8.68073H45.0261L45.9848 4.6279H48.2945V26.1558C48.2945 28.1604 48.4107 29.4823 48.6431 30.1215C48.8755 30.7606 49.2242 31.0802 49.689 31.0802C49.9214 31.0802 50.1393 31.0657 50.3427 31.0366C50.5751 31.0076 50.7785 30.9785 50.9528 30.9495V34C50.7494 34.0581 50.4879 34.1017 50.1684 34.1307C49.8778 34.1888 49.6309 34.2179 49.4275 34.2179C48.5269 34.2179 47.728 34.0436 47.0307 33.6949C46.3625 33.3463 45.825 32.6636 45.4183 31.6467C45.0406 30.6009 44.8518 29.0756 44.8518 27.071ZM56.8843 0.880124H59.804L60.2398 2.66685V34H56.8843V0.880124ZM61.3293 17.135H64.2927L66.6023 34H63.3339L61.3293 17.135ZM60.1527 18.7038H58.7146V15.9148H60.7192C61.2712 15.9148 61.736 15.7695 62.1137 15.479C62.4914 15.1594 62.7674 14.5784 62.9417 13.7359C63.1451 12.8643 63.2468 11.6005 63.2468 9.94451C63.2468 8.25947 63.1451 6.99568 62.9417 6.15316C62.7674 5.28158 62.4914 4.70053 62.1137 4.41001C61.736 4.11948 61.2712 3.97422 60.7192 3.97422H58.7146V0.880124H60.1527C61.6925 0.880124 62.9417 1.17065 63.9005 1.7517C64.8592 2.33275 65.5564 3.29148 65.9922 4.6279C66.428 5.93526 66.6459 7.70747 66.6459 9.94451C66.6459 12.1235 66.399 13.794 65.9051 14.9561C65.4402 16.0891 64.743 16.9607 63.8133 17.5708H62.5931V18.3988C61.8958 18.6022 61.0824 18.7038 60.1527 18.7038ZM68.2876 34V8.68073H71.7303V34H68.2876ZM68.244 6.37105V2.3618H71.7739V6.37105H68.244ZM72.989 11.6005V8.68073H80.6153V11.6005H72.989ZM74.5143 27.071V8.68073H74.6886L75.6473 4.6279H77.957V26.1558C77.957 28.1604 78.0732 29.4823 78.3056 30.1215C78.538 30.7606 78.8867 31.0802 79.3515 31.0802C79.5839 31.0802 79.8018 31.0657 80.0052 31.0366C80.2376 31.0076 80.441 30.9785 80.6153 30.9495V34C80.4119 34.0581 80.1505 34.1017 79.8309 34.1307C79.5404 34.1888 79.2934 34.2179 79.09 34.2179C78.1894 34.2179 77.3905 34.0436 76.6932 33.6949C76.025 33.3463 75.4875 32.6636 75.0808 31.6467C74.7031 30.6009 74.5143 29.0756 74.5143 27.071ZM91.4923 8.68073V34H88.4853L88.0931 32.4312V8.68073H91.4923ZM81.905 8.68073H85.3477V28.7705C85.3477 29.8164 85.4494 30.5427 85.6527 30.9495C85.8851 31.3562 86.2338 31.5596 86.6986 31.5596C86.931 31.5596 87.1635 31.5305 87.3959 31.4724C87.6283 31.3853 87.8607 31.2836 88.0931 31.1674V32.4312C87.7445 32.9832 87.2942 33.4189 86.7422 33.7385C86.1902 34.0581 85.6382 34.2179 85.0862 34.2179C84.1275 34.2179 83.3576 33.8693 82.7765 33.172C82.1955 32.4747 81.905 31.211 81.905 29.3806V8.68073ZM102.715 17.1786V34H99.7082L99.316 32.4312V17.3965C99.316 15.7695 99.2579 14.5203 99.1417 13.6487C99.0255 12.7481 98.8657 12.138 98.6624 11.8184C98.459 11.4698 98.2266 11.2955 97.9651 11.2955C97.7327 11.2955 97.5148 11.4552 97.3114 11.7748C97.1371 12.0653 96.9918 12.6173 96.8756 13.4308C96.7594 14.2152 96.6868 15.3338 96.6577 16.7864H93.4765V16.6121C93.5055 14.4331 93.7234 12.7626 94.1302 11.6005C94.5659 10.4384 95.1179 9.62493 95.7862 9.16009C96.4834 8.69525 97.2533 8.46283 98.0958 8.46283C98.7059 8.46283 99.287 8.59357 99.839 8.85504C100.391 9.08746 100.87 9.52325 101.277 10.1624C101.713 10.7725 102.062 11.6441 102.323 12.7771C102.584 13.9102 102.715 15.3773 102.715 17.1786ZM99.011 21.7544C98.4009 21.8415 97.907 22.0304 97.5293 22.3209C97.1807 22.6114 96.9337 23.1198 96.7885 23.8461C96.6432 24.5725 96.5706 25.5893 96.5706 26.8967C96.5706 28.727 96.6723 29.9617 96.8756 30.6009C97.108 31.24 97.4567 31.5596 97.9215 31.5596C98.1539 31.5596 98.3864 31.5305 98.6188 31.4724C98.8512 31.3853 99.0836 31.2836 99.316 31.1674V32.4312C98.9674 32.9832 98.5171 33.4189 97.9651 33.7385C97.4131 34.0581 96.8611 34.2179 96.3091 34.2179C95.699 34.2179 95.147 34.0291 94.6531 33.6514C94.1883 33.2737 93.8251 32.591 93.5636 31.6032C93.3022 30.5863 93.1714 29.1337 93.1714 27.2453C93.1714 25.415 93.3457 23.9624 93.6944 22.8874C94.043 21.8125 94.6386 21.0135 95.4811 20.4906C96.3527 19.9386 97.5293 19.5464 99.011 19.314L100.057 19.1832V21.6672L99.011 21.7544ZM104.802 34V0.880124H108.245V34H104.802ZM115.561 28.5527C115.561 27.4487 115.372 26.4463 114.994 25.5457C114.617 24.6451 114.137 23.788 113.556 22.9746C113.004 22.1611 112.438 21.3331 111.857 20.4906C111.305 19.6481 110.84 18.7038 110.462 17.658C110.084 16.6121 109.895 15.4064 109.895 14.0409C109.895 12.4721 110.288 11.1502 111.072 10.0752C111.886 9.0003 112.961 8.46283 114.297 8.46283C115.169 8.46283 115.938 8.69525 116.607 9.16009C117.275 9.59588 117.783 10.3948 118.132 11.5569C118.51 12.719 118.698 14.375 118.698 16.5249V17.135H115.735V16.7428C115.735 14.7672 115.604 13.3727 115.343 12.5592C115.11 11.7167 114.791 11.2955 114.384 11.2955C114.035 11.2955 113.73 11.5569 113.469 12.0799C113.237 12.5738 113.12 13.2274 113.12 14.0409C113.12 15.174 113.309 16.1763 113.687 17.0479C114.094 17.9194 114.573 18.7474 115.125 19.5318C115.677 20.3163 116.229 21.1297 116.781 21.9723C117.362 22.8148 117.841 23.7735 118.219 24.8485C118.626 25.8943 118.829 27.1291 118.829 28.5527C118.829 29.5404 118.669 30.4701 118.35 31.3417C118.059 32.2133 117.594 32.9105 116.955 33.4335C116.316 33.9564 115.488 34.2179 114.471 34.2179C113.6 34.2179 112.83 34 112.162 33.5642C111.493 33.0994 110.97 32.2859 110.593 31.1238C110.215 29.9326 110.026 28.2767 110.026 26.1558V25.4586H112.99V25.9379C112.99 27.9135 113.106 29.3225 113.338 30.1651C113.6 31.0076 113.948 31.4289 114.384 31.4289C114.82 31.4289 115.125 31.1238 115.299 30.5137C115.474 29.9036 115.561 29.2499 115.561 28.5527Z" fill="black"/>
</svg>
