<svg width="108" height="166" viewBox="0 0 108 166" fill="none" xmlns="http://www.w3.org/2000/svg">
<path d="M11.6411 133.961V118.487H41.7182V133.961H11.6411ZM14.0386 0.357991H38.231L51.9619 166H34.7438L27.1156 31.9607L25.372 4.93495H26.6797L24.9361 31.9607L16.8719 166H0.52565L14.0386 0.357991ZM59.1593 0.357991H73.762L75.9415 9.29394V166H59.1593V0.357991ZM81.3902 81.6533H96.2108L107.762 166H91.4159L81.3902 81.6533ZM75.5056 89.4995H68.3132V75.5507H78.3389C81.0996 75.5507 83.4244 74.8242 85.3133 73.3712C87.2022 71.7729 88.5826 68.8669 89.4544 64.6532C90.4715 60.2942 90.98 53.9737 90.98 45.6916C90.98 37.2642 90.4715 30.9436 89.4544 26.7299C88.5826 22.3709 87.2022 19.4649 85.3133 18.0119C83.4244 16.5589 81.0996 15.8324 78.3389 15.8324H68.3132V0.357991H75.5056C83.2065 0.357991 89.4544 1.81099 94.2493 4.717C99.0442 7.623 102.531 12.4179 104.711 19.1017C106.89 25.6402 107.98 34.5035 107.98 45.6916C107.98 56.5891 106.745 64.9438 104.275 70.7558C101.95 76.4225 98.463 80.7815 93.8134 83.8329H87.7108V87.9739C84.2236 88.991 80.1552 89.4995 75.5056 89.4995Z" fill="black"/>
</svg>
